<svg id="Alpha_and_Omega" data-name="Alpha and Omega" xmlns="http://www.w3.org/2000/svg" viewBox="0 0 1015.6 1218.16"><defs><style>.cls-1{fill:#fff;stroke:#00e990;stroke-miterlimit:10;stroke-width:13px;}</style></defs><title>logo-green</title><g id="logo"><path class="cls-1" d="M984.3,1069.4H886.4L849.1,968l4-3.9c91.8-90.9,142.3-211.8,142.3-340.3S944.9,374.4,853.1,283.5s-213.7-141-343.5-141-251.7,50.1-343.5,141S23.8,495.1,23.8,623.7,74.3,873.1,166.1,964l4,3.9-37.3,101.4H34.9V1054h84.8l31.5-83C59,877.6,8.3,754.5,8.3,623.7,8.3,491,60.4,366.3,155.1,272.5S375.7,127,509.6,127s259.8,51.7,354.5,145.5S1010.9,491,1010.9,623.7c0,130.8-50.7,253.9-142.9,347.3l29.8,83h86.5Z" transform="translate(-1.8 11.66)"/><polygon class="cls-1" points="786.9 512.46 515.5 512.46 515.5 243.46 500 243.46 500 512.46 228.6 512.46 228.6 527.76 500 527.76 500 1211.66 515.5 1211.66 515.5 527.76 786.9 527.76 786.9 512.46"/><polygon class="cls-1" points="174 968.66 162.3 955.46 314.3 540.56 332.4 540.66 174 968.66"/><polygon class="cls-1" points="352.2 499.66 334.1 499.66 453.9 171.76 472 171.76 352.2 499.66"/><polygon class="cls-1" points="523.7 115.26 507.8 68.06 491.9 115.26 473.7 115.56 507.8 19.46 541.8 115.56 523.7 115.26"/><polygon class="cls-1" points="666.8 499.66 545.3 171.76 561.6 171.76 684.6 499.66 666.8 499.66"/><polygon class="cls-1" points="841.5 968.66 683.1 540.66 701.2 540.56 853.2 955.46 841.5 968.66"/></g></svg>