<?xml version="1.0" encoding="utf-8"?>
<!-- Generator: Adobe Illustrator 22.1.0, SVG Export Plug-In . SVG Version: 6.00 Build 0)  -->
<svg version="1.1" id="Alpha_and_Omega" xmlns="http://www.w3.org/2000/svg" xmlns:xlink="http://www.w3.org/1999/xlink" x="0px"
	 y="0px" viewBox="0 0 1023.7 1200" style="enable-background:new 0 0 1023.7 1200;" xml:space="preserve">
<style type="text/css">
	.st0{fill:#FFFFFF;stroke:#FFFFFF;stroke-width:13;stroke-miterlimit:10;}
</style>
<g id="logo">
	<path class="st0" d="M984.3,1069.4h-97.9L849.1,968l4-3.9c91.8-90.9,142.3-211.8,142.3-340.3c0-128.6-50.5-249.4-142.3-340.3
		c-91.7-90.9-213.7-141-343.5-141s-251.7,50.1-343.5,141S23.8,495.1,23.8,623.7S74.3,873.1,166.1,964l4,3.9l-37.3,101.4H34.9V1054
		h84.8l31.5-83C59,877.6,8.3,754.5,8.3,623.7c0-132.7,52.1-257.4,146.8-351.2S375.7,127,509.6,127s259.8,51.7,354.5,145.5
		s146.8,218.5,146.8,351.2c0,130.8-50.7,253.9-142.9,347.3l29.8,83h86.5V1069.4z"/>
	<polygon class="st0" points="788.7,500.8 517.3,500.8 517.3,231.8 501.8,231.8 501.8,500.8 230.4,500.8 230.4,516.1 501.8,516.1 
		501.8,1200 517.3,1200 517.3,516.1 788.7,516.1 	"/>
	<polygon class="st0" points="175.8,957 164.1,943.8 316.1,528.9 334.2,529 	"/>
	<polygon class="st0" points="354,488 335.9,488 455.7,160.1 473.8,160.1 	"/>
	<polygon class="st0" points="525.5,103.6 509.6,56.4 493.7,103.6 475.5,103.9 509.6,7.8 543.6,103.9 	"/>
	<polygon class="st0" points="668.6,488 547.1,160.1 563.4,160.1 686.4,488 	"/>
	<polygon class="st0" points="843.3,957 684.9,529 703,528.9 855,943.8 	"/>
</g>
</svg>
