<svg id="Layer_1" data-name="Layer 1" xmlns="http://www.w3.org/2000/svg" xmlns:xlink="http://www.w3.org/1999/xlink" viewBox="0 0 3382.1 3368.6"><defs><style>.cls-1,.cls-2{fill:none;}.cls-2{clip-path:url(#clip-path);}.cls-3{fill:url(#linear-gradient);}.cls-4{clip-path:url(#clip-path-2);}.cls-5{fill:url(#linear-gradient-2);}.cls-6{fill:url(#linear-gradient-3);}.cls-7{fill:url(#linear-gradient-4);}.cls-8{fill:url(#linear-gradient-5);}.cls-9{opacity:0.2;isolation:isolate;fill:url(#linear-gradient-6);}</style><clipPath id="clip-path"><polygon class="cls-1" points="1 1 2 1 1 2 1 1"/></clipPath><linearGradient id="linear-gradient" x1="781.79" y1="832.5" x2="3167.41" y2="3218.12" gradientTransform="matrix(1, 0, 0, -1, 205.33, 4205.33)" gradientUnits="userSpaceOnUse"><stop offset="0" stop-color="#00ffc2"/><stop offset="1" stop-color="#08ffc4"/></linearGradient><clipPath id="clip-path-2" transform="translate(-308.9 -315.7)"><polygon class="cls-2" points="-1 -1 -2 -1 -1 -2 -1 -1"/></clipPath><linearGradient id="linear-gradient-2" x1="3724.88" y1="2675.08" x2="3724.88" y2="5618.58" gradientTransform="matrix(0, 1, 1, 0, -1927.58, -1725.58)" gradientUnits="userSpaceOnUse"><stop offset="0.28"/><stop offset="1" stop-color="#666"/></linearGradient><linearGradient id="linear-gradient-3" x1="3724.88" y1="2675.08" x2="3724.88" y2="5618.58" gradientTransform="matrix(0, 1, 1, 0, -1927.58, -1725.58)" xlink:href="#linear-gradient"/><linearGradient id="linear-gradient-4" x1="3065.9" y1="340.75" x2="3096.1" y2="340.75" gradientTransform="matrix(1, 0, 0, -1, 0, 4000)" xlink:href="#linear-gradient"/><linearGradient id="linear-gradient-5" x1="2505.1" y1="1197" x2="2835.9" y2="1197" gradientTransform="matrix(1, 0, 0, -1, 0, 4000)" gradientUnits="userSpaceOnUse"><stop offset="0" stop-color="#00ffc2"/><stop offset="1" stop-color="#00ded5"/></linearGradient><linearGradient id="linear-gradient-6" x1="778.9" y1="2054.8" x2="3691" y2="2054.8" gradientTransform="matrix(1, 0, 0, -1, 0, 4000)" xlink:href="#linear-gradient"/></defs><title>logo-short-white</title><path class="cls-3" d="M3688.9,1919.1c-42.4-891.3-783.7-1603.4-1689-1603.4-932.4,0-1691,755.5-1691,1684.3s758.6,1684.3,1691,1684.3c304,0,589.3-80.8,836.1-221.2,81,132.5,226.8,221.2,393.8,221.2,254.6,0,461.2-205.7,461.2-459.4V1919.1Zm-1689,846.4c-423.8,0-768.7-343.4-768.7-765.6s344.9-765.7,768.7-765.7c396.6,0,724,300.7,764.5,685.4h0c1.3,13,2.4,26.1,3.1,39.3v.6c.7,13.4,1.1,26.9,1.1,40.4C2768.6,2422.1,2423.8,2765.5,1999.9,2765.5Z" transform="translate(-308.9 -315.7)"/><g id="SVGID"><g class="cls-4"><path class="cls-5" d="M1584.3,647.8c905.3,0,1646.5,712.1,1689,1603.4h2.1V3557a455.49,455.49,0,0,1-18,125.9c241.8-14.3,433.6-213.6,433.6-458V1919.1h-2.2c-42.4-891.3-783.7-1603.4-1689-1603.4-495.9,0-942.8,213.8-1252.3,553.7A1684.72,1684.72,0,0,1,1584.3,647.8Z" transform="translate(-308.9 -315.7)"/></g></g><path class="cls-6" d="M1584.3,647.8c905.3,0,1646.5,712.1,1689,1603.4h2.1V3557a455.49,455.49,0,0,1-18,125.9c241.8-14.3,433.6-213.6,433.6-458V1919.1h-2.2c-42.4-891.3-783.7-1603.4-1689-1603.4-495.9,0-942.8,213.8-1252.3,553.7A1684.72,1684.72,0,0,1,1584.3,647.8Z" transform="translate(-308.9 -315.7)"/><path class="cls-7" d="M3065.9,3654.1c10,3.7,20,7.2,30.2,10.3C3085.9,3661.3,3075.8,3657.8,3065.9,3654.1Z" transform="translate(-308.9 -315.7)"/><path class="cls-8" d="M2768.6,3224.9V2050.3h-1.8c-13.7,209.4-112.3,396-261.7,526.1v648.5c0,130.1,54.6,247.2,141.7,330.8a1688.48,1688.48,0,0,0,189.1-92.6A453.52,453.52,0,0,1,2768.6,3224.9Z" transform="translate(-308.9 -315.7)"/><path class="cls-9" d="M3688.9,1919.1c-42.4-891.3-783.7-1603.4-1689-1603.4-479.6,0-912.9,200.2-1221,520.7,303.8-289.6,715.4-468.2,1168.3-468.2,905.2,0,1646.4,712.1,1689,1603.4h2.1V3277.4c0,113.4-41.5,217.1-110,297.3,99.4-84.2,162.7-209.6,162.7-349.8V1919.1Z" transform="translate(-308.9 -315.7)"/></svg>