<svg id="Layer_1" data-name="Layer 1" xmlns="http://www.w3.org/2000/svg" xmlns:xlink="http://www.w3.org/1999/xlink" viewBox="0 0 2153.11 724.52"><defs><style>.cls-1{mask:url(#mask);}.cls-2{mix-blend-mode:multiply;fill:url(#linear-gradient);}.cls-3{fill:url(#linear-gradient-2);}.cls-4{mask:url(#mask-2);}.cls-5{fill:url(#linear-gradient-3);}.cls-6{fill:url(#linear-gradient-4);}.cls-7{fill:url(#linear-gradient-5);}.cls-8{opacity:0.2;fill:url(#linear-gradient-6);}.cls-9{font-size:472px;fill:#282828;font-family:Sinisuka-Regular, Sinisuka;}.cls-10{letter-spacing:0em;}.cls-11{filter:url(#luminosity-noclip-2);}.cls-12{filter:url(#luminosity-noclip);}</style><filter id="luminosity-noclip" x="169.81" y="-8625.76" width="450.47" height="32766" filterUnits="userSpaceOnUse" color-interpolation-filters="sRGB"><feFlood flood-color="#fff" result="bg"/><feBlend in="SourceGraphic" in2="bg"/></filter><mask id="mask" x="169.81" y="-8625.76" width="450.47" height="32766" maskUnits="userSpaceOnUse"><g class="cls-12"/></mask><linearGradient id="linear-gradient" x1="2042.01" y1="-1231.71" x2="2042.01" y2="-1682.18" gradientTransform="translate(-1061.9 -1723.73) rotate(90)" gradientUnits="userSpaceOnUse"><stop offset="0.28"/><stop offset="1" stop-color="#666"/></linearGradient><linearGradient id="linear-gradient-2" x1="2.09" y1="321.85" x2="364.92" y2="-40.98" gradientTransform="translate(205.33 205.33)" gradientUnits="userSpaceOnUse"><stop offset="0" stop-color="#00ffc2"/><stop offset="1" stop-color="#08ffc4"/></linearGradient><filter id="luminosity-noclip-2" x="169.81" y="63.84" width="450.47" height="508.88" filterUnits="userSpaceOnUse" color-interpolation-filters="sRGB"><feFlood flood-color="#fff" result="bg"/><feBlend in="SourceGraphic" in2="bg"/></filter><mask id="mask-2" x="67.14" y="81.36" width="450.47" height="508.88" maskUnits="userSpaceOnUse"><g class="cls-11"><g transform="translate(-102.67 17.53)"><g class="cls-1"><path class="cls-2" d="M297.87,114c138.54,0,252,107.62,258.48,242.32h.33V553.7a68,68,0,0,1-2.76,19c37-2.17,66.36-32.28,66.36-69.22V306.16H620C613.45,171.46,500,63.84,361.46,63.84a260.11,260.11,0,0,0-191.65,83.67A260.43,260.43,0,0,1,297.87,114Z"/></g></g></g></mask><linearGradient id="linear-gradient-3" x1="2042.01" y1="-1231.71" x2="2042.01" y2="-1682.18" gradientTransform="translate(-1061.9 -1723.73) rotate(90)" xlink:href="#linear-gradient-2"/><linearGradient id="linear-gradient-4" x1="524.6" y1="569.14" x2="529.22" y2="569.14" gradientTransform="matrix(1, 0, 0, 1, 0, 0)" xlink:href="#linear-gradient-2"/><linearGradient id="linear-gradient-5" x1="438.77" y1="439.74" x2="489.39" y2="439.74" gradientUnits="userSpaceOnUse"><stop offset="0" stop-color="#00ffc2"/><stop offset="1" stop-color="#00ded5"/></linearGradient><linearGradient id="linear-gradient-6" x1="174.61" y1="310.1" x2="620.28" y2="310.1" gradientTransform="matrix(1, 0, 0, 1, 0, 0)" xlink:href="#linear-gradient-2"/></defs><title>logo</title><path class="cls-3" d="M620,306.16C613.45,171.46,500,63.84,361.46,63.84c-142.7,0-258.79,114.18-258.79,254.54S218.76,572.93,361.46,572.93a260.5,260.5,0,0,0,128-33.43,70.72,70.72,0,0,0,60.27,33.43c39,0,70.59-31.08,70.59-69.43V306.16ZM361.46,434.08c-64.86,0-117.63-51.9-117.63-115.7S296.6,202.67,361.46,202.67c60.7,0,110.81,45.45,117,103.58h0c.2,2,.36,3.94.47,5.94v.08c.11,2,.17,4.06.17,6.1C479.1,382.18,426.34,434.08,361.46,434.08Z" transform="translate(-102.67 17.53)"/><g class="cls-4"><path class="cls-5" d="M297.87,114c138.54,0,252,107.62,258.48,242.32h.33V553.7a68,68,0,0,1-2.76,19c37-2.17,66.36-32.28,66.36-69.22V306.16H620C613.45,171.46,500,63.84,361.46,63.84a260.11,260.11,0,0,0-191.65,83.67A260.43,260.43,0,0,1,297.87,114Z" transform="translate(-102.67 17.53)"/></g><path class="cls-6" d="M524.6,568.36c1.52.56,3.06,1.09,4.62,1.55C527.66,569.45,526.12,568.92,524.6,568.36Z" transform="translate(-102.67 17.53)"/><path class="cls-7" d="M479.1,503.5V326h-.28a114.82,114.82,0,0,1-40.05,79.51v98a68.66,68.66,0,0,0,21.69,50,258.8,258.8,0,0,0,28.93-14A68.11,68.11,0,0,1,479.1,503.5Z" transform="translate(-102.67 17.53)"/><path class="cls-8" d="M620,306.16C613.45,171.46,500,63.84,361.46,63.84a260.14,260.14,0,0,0-186.85,78.69,260.2,260.2,0,0,1,178.8-70.75c138.53,0,252,107.62,258.48,242.32h.32V511.44a68.43,68.43,0,0,1-16.84,44.93,68.76,68.76,0,0,0,24.91-52.87V306.16Z" transform="translate(-102.67 17.53)"/><text class="cls-9" transform="translate(584.67 472)">ch<tspan class="cls-10" x="502.67" y="0">u</tspan><tspan x="779.27" y="0">rch</tspan></text></svg>