<?xml version="1.0" encoding="utf-8"?>
<!-- Generator: Adobe Illustrator 22.1.0, SVG Export Plug-In . SVG Version: 6.00 Build 0)  -->
<svg version="1.1" xmlns="http://www.w3.org/2000/svg" xmlns:xlink="http://www.w3.org/1999/xlink" x="0px" y="0px"
	 viewBox="0 0 1000 1000" style="enable-background:new 0 0 1000 1000;" xml:space="preserve">
<style type="text/css">
	.st0{fill-rule:evenodd;clip-rule:evenodd;}
	.st1{fill-rule:evenodd;clip-rule:evenodd;fill:#FFFFFF;}
	.st2{fill:#A5A7A8;}
	.st3{opacity:0.5;fill:#FFFFFF;}
	.st4{opacity:0.5;}
</style>
<g id="Design_Logo">
	<path class="st2" d="M436.8,406.7c-7-4.1-9.4-13.1-5.4-20.1c4.1-7,13.1-9.4,20.1-5.4l96.8,55.9l7.4,12.8v64l90.5-52.2V334.1
		l-109.7-63.4l-117.3,67.7v188.8c0,8.2-6.6,14.8-14.8,14.8c-8.2,0-14.8-6.6-14.8-14.8V379.5l-35.7-20.6v271.6l41.8-24.1
		c0.8-0.6,1.8-1.1,2.7-1.6l95.2-55c7-4,16-1.6,20.1,5.4c4,7,1.6,16-5.4,20.1l-89.2,51.5v52l107.1,44.6V458.4L436.8,406.7
		L436.8,406.7z M555.7,547.9v197.5L535.3,759l-136.6-56.9l-9.1-13.6v-44.7l-43.2,24.9L324.3,656V333.3l22.1-12.7l43.2,24.9V330
		l7.4-12.7L529,241h14.8l124.5,71.9l7.4,12.7v144.5l-7.4,12.7L555.7,547.9L555.7,547.9z"/>
</g>
<g id="Guides_line">
</g>
<g id="Background">
	<path id="box_1_" class="st3" d="M0,0v1000h1000V0H0z M800,800H200V200h600V800z"/>
</g>
</svg>
