<?xml version="1.0" encoding="utf-8"?>
<!-- Generator: Adobe Illustrator 22.1.0, SVG Export Plug-In . SVG Version: 6.00 Build 0)  -->
<svg version="1.1" xmlns="http://www.w3.org/2000/svg" xmlns:xlink="http://www.w3.org/1999/xlink" x="0px" y="0px"
	 viewBox="0 0 1000 1000" style="enable-background:new 0 0 1000 1000;" xml:space="preserve">
<style type="text/css">
	.st0{fill-rule:evenodd;clip-rule:evenodd;}
	.st1{fill-rule:evenodd;clip-rule:evenodd;fill:#FFFFFF;}
	.st2{fill:#A5A7A8;}
	.st3{opacity:0.5;fill:#FFFFFF;}
	.st4{opacity:0.5;}
</style>
<g id="Design_Logo">
	<rect class="st0" width="1000" height="1000"/>
	<g>
		<path class="st2" d="M274.5,471.4c-2.2-1.3-2.9-4-1.6-6.2c1.3-2.2,4-2.9,6.2-1.6l29.7,17.1l2.3,3.9v19.6l27.7-16v-39.1L305,429.7
			l-36,20.8v57.9c0,2.5-2,4.5-4.5,4.5c-2.5,0-4.5-2-4.5-4.5V463l-11-6.3V540l12.8-7.4c0.3-0.2,0.5-0.4,0.8-0.5l29.2-16.9
			c2.2-1.2,4.9-0.5,6.2,1.7c1.2,2.2,0.5,4.9-1.7,6.2l-27.3,15.8v15.9l32.8,13.7v-81.2L274.5,471.4L274.5,471.4z M311,514.7v60.6
			l-6.3,4.2L262.8,562l-2.8-4.2v-13.7l-13.2,7.6l-6.8-3.9v-98.9l6.8-3.9l13.2,7.6v-4.7l2.3-3.9l40.5-23.4h4.5l38.2,22l2.3,3.9v44.3
			l-2.3,3.9L311,514.7L311,514.7z"/>
		<path class="st1" d="M397.5,479.8v71.5h-10.8v-82.2H429c12.8,0,19.1,6.9,19.1,19.5v7.8c0,12.6-6.3,19.5-19.1,19.5h-29.6v-10.3
			h28.9c6.3,0,9-3.1,9-9.3v-7.1c0-6.2-2.7-9.3-9-9.3H397.5L397.5,479.8z M480.2,479.8v24.6h40.6v10.4h-40.6v25.9h41.7v10.7h-52.5
			v-82.2h52.1v10.7H480.2L480.2,479.8z M556,479.8v24.6h40.6v10.4H556v25.9h41.7v10.7h-52.5v-82.2h52.1v10.7H556L556,479.8z
			 M631.8,479.8v71.5H621v-82.2h42.3c12.8,0,19.1,6.9,19.1,19.5v7.8c0,12.6-6.3,19.5-19.1,19.5h-29.6v-10.3h28.9c6.3,0,9-3.1,9-9.3
			v-7.1c0-6.2-2.7-9.3-9-9.3H631.8L631.8,479.8z M757.4,469.1v10.7h-36.6c-6,0-8.6,3-8.6,8.9v7.6c0,5.2,2.3,7.8,7.6,7.8h23.5
			c11.2,0,16.8,6,16.8,17.1v11.4c0,12.2-6.1,18.7-18.4,18.7H702v-10.7h38.7c6,0,8.7-2.9,8.7-8.9v-9.8c0-5.2-2.3-7.8-7.6-7.8h-23.6
			c-11.2,0-16.8-6-16.8-17.1v-9.2c0-12.2,6.1-18.7,18.4-18.7H757.4L757.4,469.1z"/>
	</g>
</g>
<g id="Guides_line">
</g>
<g id="Background">
	<path id="box_2_" class="st4" d="M0,0v1000h1000V0H0z M800,800H200V200h600V800z"/>
</g>
</svg>
